<svg xmlns="http://www.w3.org/2000/svg" width="1200" height="260" viewBox="0 0 1200 260">
  <defs>
    <style>
      .title { font: 700 28px 'Arial', sans-serif; fill: #402218; }
      .label { font: 600 18px 'Arial', sans-serif; fill: #402218; }
      .box { fill: #fff7f0; stroke: #b86b4b; stroke-width: 3; rx: 18; ry: 18; }
      .arrow { stroke: #b86b4b; stroke-width: 4; fill: none; marker-end: url(#arrowhead); }
      .bg { fill: #fdf3e7; }
    </style>
    <marker id="arrowhead" markerWidth="10" markerHeight="7" refX="8" refY="3.5" orient="auto">
      <polygon points="0 0, 10 3.5, 0 7" fill="#b86b4b" />
    </marker>
  </defs>
  <rect class="bg" x="0" y="0" width="1200" height="260" rx="24" ry="24"/>
  <text class="title" x="40" y="46">Fluxo de Triagem Ginecológica</text>

  <rect class="box" x="30" y="95" width="160" height="92" rx="18" ry="18"/>
  <text class="label" x="110" y="132" text-anchor="middle">Sintomas</text>
  <text class="label" x="110" y="158" text-anchor="middle">relatados</text>

  <rect class="box" x="220" y="95" width="160" height="92" rx="18" ry="18"/>
  <text class="label" x="300" y="132" text-anchor="middle">Análise</text>
  <text class="label" x="300" y="158" text-anchor="middle">de risco</text>

  <rect class="box" x="410" y="95" width="170" height="92" rx="18" ry="18"/>
  <text class="label" x="495" y="132" text-anchor="middle">Classificação</text>
  <text class="label" x="495" y="158" text-anchor="middle">de urgência</text>

  <rect class="box" x="610" y="95" width="170" height="92" rx="18" ry="18"/>
  <text class="label" x="695" y="132" text-anchor="middle">Sugestão</text>
  <text class="label" x="695" y="158" text-anchor="middle">de exames</text>

  <rect class="box" x="810" y="95" width="170" height="92" rx="18" ry="18"/>
  <text class="label" x="895" y="132" text-anchor="middle">Orientações</text>
  <text class="label" x="895" y="158" text-anchor="middle">iniciais</text>

  <rect class="box" x="990" y="86" width="190" height="110" rx="18" ry="18"/>
  <text class="label" x="1085" y="122" text-anchor="middle">Agendamento</text>
  <text class="label" x="1085" y="149" text-anchor="middle">ou</text>
  <text class="label" x="1085" y="176" text-anchor="middle">encaminhamento</text>

  <line class="arrow" x1="190" y1="141" x2="220" y2="141"/>
  <line class="arrow" x1="380" y1="141" x2="410" y2="141"/>
  <line class="arrow" x1="580" y1="141" x2="610" y2="141"/>
  <line class="arrow" x1="780" y1="141" x2="810" y2="141"/>
  <line class="arrow" x1="980" y1="141" x2="990" y2="141"/>
</svg>
