<svg xmlns="http://www.w3.org/2000/svg" width="1200" height="260" viewBox="0 0 1200 260">
  <defs>
    <style>
      .title { font: 700 28px 'Arial', sans-serif; fill: #4a1f1f; }
      .label { font: 600 18px 'Arial', sans-serif; fill: #4a1f1f; }
      .box { fill: #fff4f4; stroke: #c05621; stroke-width: 3; rx: 18; ry: 18; }
      .arrow { stroke: #c05621; stroke-width: 4; fill: none; marker-end: url(#arrowhead); }
      .bg { fill: #fdecec; }
    </style>
    <marker id="arrowhead" markerWidth="10" markerHeight="7" refX="8" refY="3.5" orient="auto">
      <polygon points="0 0, 10 3.5, 0 7" fill="#c05621" />
    </marker>
  </defs>
  <rect class="bg" x="0" y="0" width="1200" height="260" rx="24" ry="24"/>
  <text class="title" x="40" y="46">Fluxo de Violência Doméstica</text>

  <rect class="box" x="30" y="95" width="160" height="92" rx="18" ry="18"/>
  <text class="label" x="110" y="132" text-anchor="middle">Sinais</text>
  <text class="label" x="110" y="158" text-anchor="middle">de alerta</text>

  <rect class="box" x="220" y="95" width="160" height="92" rx="18" ry="18"/>
  <text class="label" x="300" y="132" text-anchor="middle">Avaliação</text>
  <text class="label" x="300" y="158" text-anchor="middle">de risco</text>

  <rect class="box" x="410" y="95" width="170" height="92" rx="18" ry="18"/>
  <text class="label" x="495" y="132" text-anchor="middle">Protocolo</text>
  <text class="label" x="495" y="158" text-anchor="middle">de segurança</text>

  <rect class="box" x="610" y="95" width="170" height="92" rx="18" ry="18"/>
  <text class="label" x="695" y="125" text-anchor="middle">Equipe</text>
  <text class="label" x="695" y="151" text-anchor="middle">especializada</text>
  <text class="label" x="695" y="177" text-anchor="middle">acionada</text>

  <rect class="box" x="810" y="95" width="170" height="92" rx="18" ry="18"/>
  <text class="label" x="895" y="132" text-anchor="middle">Documentação</text>
  <text class="label" x="895" y="158" text-anchor="middle">segura</text>

  <rect class="box" x="1010" y="95" width="160" height="92" rx="18" ry="18"/>
  <text class="label" x="1090" y="125" text-anchor="middle">Acompanhamento</text>
  <text class="label" x="1090" y="151" text-anchor="middle">e</text>
  <text class="label" x="1090" y="177" text-anchor="middle">seguimento</text>

  <line class="arrow" x1="190" y1="141" x2="220" y2="141"/>
  <line class="arrow" x1="380" y1="141" x2="410" y2="141"/>
  <line class="arrow" x1="580" y1="141" x2="610" y2="141"/>
  <line class="arrow" x1="780" y1="141" x2="810" y2="141"/>
  <line class="arrow" x1="980" y1="141" x2="1010" y2="141"/>
</svg>
